<svg width="50" height="50" viewBox="0 0 50 50" fill="none" xmlns="http://www.w3.org/2000/svg">
<path d="M2.08337 41.6667V35.8334C2.08337 34.6528 2.38719 33.5677 2.99483 32.5782C3.60247 31.5886 4.40976 30.8334 5.41671 30.3125C7.56948 29.2362 9.75698 28.4289 11.9792 27.8907C14.2014 27.3525 16.4584 27.0834 18.75 27.0834C21.0417 27.0834 23.2987 27.3525 25.5209 27.8907C27.7431 28.4289 29.9306 29.2362 32.0834 30.3125C33.0903 30.8334 33.8976 31.5886 34.5052 32.5782C35.1129 33.5677 35.4167 34.6528 35.4167 35.8334V41.6667H2.08337ZM39.5834 41.6667V35.4167C39.5834 33.8889 39.158 32.4219 38.3073 31.0157C37.4566 29.6094 36.25 28.4028 34.6875 27.3959C36.4584 27.6042 38.125 27.9601 39.6875 28.4636C41.25 28.9671 42.7084 29.5834 44.0625 30.3125C45.3125 31.007 46.2674 31.7796 46.9271 32.6302C47.5868 33.4809 47.9167 34.4098 47.9167 35.4167V41.6667H39.5834ZM18.75 25C16.4584 25 14.4966 24.1841 12.8646 22.5521C11.2327 20.9202 10.4167 18.9584 10.4167 16.6667C10.4167 14.375 11.2327 12.4132 12.8646 10.7813C14.4966 9.14935 16.4584 8.33337 18.75 8.33337C21.0417 8.33337 23.0035 9.14935 24.6355 10.7813C26.2674 12.4132 27.0834 14.375 27.0834 16.6667C27.0834 18.9584 26.2674 20.9202 24.6355 22.5521C23.0035 24.1841 21.0417 25 18.75 25ZM39.5834 16.6667C39.5834 18.9584 38.7674 20.9202 37.1355 22.5521C35.5035 24.1841 33.5417 25 31.25 25C30.8681 25 30.382 24.9566 29.7917 24.8698C29.2014 24.783 28.7153 24.6875 28.3334 24.5834C29.2709 23.4723 29.9914 22.2396 30.4948 20.8855C30.9983 19.5313 31.25 18.125 31.25 16.6667C31.25 15.2084 30.9983 13.8021 30.4948 12.448C29.9914 11.0938 29.2709 9.86115 28.3334 8.75004C28.8195 8.57643 29.3056 8.46358 29.7917 8.4115C30.2778 8.35942 30.7639 8.33337 31.25 8.33337C33.5417 8.33337 35.5035 9.14935 37.1355 10.7813C38.7674 12.4132 39.5834 14.375 39.5834 16.6667ZM6.25004 37.5H31.25V35.8334C31.25 35.4514 31.1546 35.1042 30.9636 34.7917C30.7726 34.4792 30.5209 34.2362 30.2084 34.0625C28.3334 33.125 26.441 32.4219 24.5313 31.9532C22.6216 31.4844 20.6945 31.25 18.75 31.25C16.8056 31.25 14.8785 31.4844 12.9688 31.9532C11.0591 32.4219 9.16671 33.125 7.29171 34.0625C6.97921 34.2362 6.72747 34.4792 6.5365 34.7917C6.34553 35.1042 6.25004 35.4514 6.25004 35.8334V37.5ZM18.75 20.8334C19.8959 20.8334 20.8768 20.4254 21.6927 19.6094C22.5087 18.7934 22.9167 17.8125 22.9167 16.6667C22.9167 15.5209 22.5087 14.54 21.6927 13.724C20.8768 12.908 19.8959 12.5 18.75 12.5C17.6042 12.5 16.6233 12.908 15.8073 13.724C14.9914 14.54 14.5834 15.5209 14.5834 16.6667C14.5834 17.8125 14.9914 18.7934 15.8073 19.6094C16.6233 20.4254 17.6042 20.8334 18.75 20.8334Z" fill="#F9A200"/>
</svg>
