<svg width="50" height="50" viewBox="0 0 50 50" fill="none" xmlns="http://www.w3.org/2000/svg">
<path d="M24.7396 41.6666C24.8785 41.6666 25.0174 41.6319 25.1562 41.5625C25.2951 41.493 25.3993 41.4236 25.4688 41.3541L42.5521 24.2708C42.9687 23.8541 43.2726 23.3854 43.4635 22.8645C43.6545 22.3437 43.75 21.8229 43.75 21.302C43.75 20.7465 43.6545 20.217 43.4635 19.7135C43.2726 19.21 42.9687 18.7673 42.5521 18.3854L33.6979 9.53121C33.316 9.11454 32.8733 8.81072 32.3698 8.61975C31.8663 8.42878 31.3368 8.33329 30.7812 8.33329C30.2604 8.33329 29.7396 8.42878 29.2188 8.61975C28.6979 8.81072 28.2292 9.11454 27.8125 9.53121L27.2396 10.1041L31.0938 14.0104C31.6146 14.4965 31.9965 15.052 32.2396 15.677C32.4826 16.302 32.6042 16.9618 32.6042 17.6562C32.6042 19.1145 32.1094 20.3385 31.1198 21.3281C30.1302 22.3177 28.9062 22.8125 27.4479 22.8125C26.7535 22.8125 26.0851 22.6909 25.4427 22.4479C24.8003 22.2048 24.2361 21.8402 23.75 21.3541L19.8438 17.5L10.7292 26.6145C10.625 26.7187 10.5469 26.8316 10.4948 26.9531C10.4427 27.0746 10.4167 27.2048 10.4167 27.3437C10.4167 27.6215 10.5208 27.8732 10.7292 28.0989C10.9375 28.3246 11.1806 28.4375 11.4583 28.4375C11.5972 28.4375 11.7361 28.4027 11.875 28.3333C12.0139 28.2638 12.1181 28.1944 12.1875 28.125L19.2708 21.0416L22.1875 23.9583L15.1562 31.0416C15.0521 31.1458 14.974 31.2586 14.9219 31.3802C14.8698 31.5017 14.8437 31.6319 14.8437 31.7708C14.8437 32.0486 14.9479 32.2916 15.1562 32.5C15.3646 32.7083 15.6076 32.8125 15.8854 32.8125C16.0243 32.8125 16.1632 32.7777 16.3021 32.7083C16.441 32.6388 16.5451 32.5694 16.6146 32.5L23.6979 25.4687L26.6146 28.3854L19.5833 35.4687C19.4792 35.5382 19.401 35.6423 19.349 35.7812C19.2969 35.9201 19.2708 36.059 19.2708 36.1979C19.2708 36.4757 19.375 36.7187 19.5833 36.927C19.7917 37.1354 20.0347 37.2395 20.3125 37.2395C20.4514 37.2395 20.5816 37.2135 20.7031 37.1614C20.8247 37.1093 20.9375 37.0312 21.0417 36.927L28.125 29.8958L31.0417 32.8125L23.9583 39.8958C23.8542 40 23.776 40.1128 23.724 40.2343C23.6719 40.3559 23.6458 40.4861 23.6458 40.625C23.6458 40.9027 23.7587 41.1458 23.9844 41.3541C24.2101 41.5625 24.4618 41.6666 24.7396 41.6666ZM24.6875 45.8333C23.4028 45.8333 22.2656 45.4079 21.276 44.5573C20.2865 43.7066 19.7049 42.6388 19.5312 41.3541C18.3507 41.1805 17.3611 40.6944 16.5625 39.8958C15.7639 39.0972 15.2778 38.1076 15.1042 36.927C13.9236 36.7534 12.9427 36.2586 12.1615 35.4427C11.3802 34.6267 10.9028 33.6458 10.7292 32.5C9.40972 32.3263 8.33333 31.7534 7.5 30.7812C6.66667 29.809 6.25 28.6632 6.25 27.3437C6.25 26.6493 6.38021 25.9809 6.64062 25.3385C6.90104 24.6961 7.27431 24.1319 7.76042 23.6458L19.8438 11.6145L26.6667 18.4375C26.7361 18.5416 26.8403 18.6198 26.9792 18.6718C27.1181 18.7239 27.2569 18.75 27.3958 18.75C27.7083 18.75 27.9687 18.6545 28.1771 18.4635C28.3854 18.2725 28.4896 18.0208 28.4896 17.7083C28.4896 17.5694 28.4635 17.4305 28.4115 17.2916C28.3594 17.1527 28.2812 17.0486 28.1771 16.9791L20.7292 9.53121C20.3472 9.11454 19.9045 8.81072 19.401 8.61975C18.8976 8.42878 18.3681 8.33329 17.8125 8.33329C17.2917 8.33329 16.7708 8.42878 16.25 8.61975C15.7292 8.81072 15.2604 9.11454 14.8437 9.53121L7.5 16.927C7.1875 17.2395 6.92708 17.6041 6.71875 18.0208C6.51042 18.4375 6.37153 18.8541 6.30208 19.2708C6.23264 19.6875 6.23264 20.1128 6.30208 20.5468C6.37153 20.9809 6.51042 21.3888 6.71875 21.7708L3.69792 24.7916C3.10764 23.993 2.67361 23.1163 2.39583 22.1614C2.11806 21.2066 2.01389 20.243 2.08333 19.2708C2.15278 18.2986 2.39583 17.3524 2.8125 16.4323C3.22917 15.5121 3.80208 14.6875 4.53125 13.9583L11.875 6.61454C12.7083 5.81593 13.6372 5.20829 14.6615 4.79163C15.6858 4.37496 16.7361 4.16663 17.8125 4.16663C18.8889 4.16663 19.9392 4.37496 20.9635 4.79163C21.9878 5.20829 22.8993 5.81593 23.6979 6.61454L24.2708 7.18746L24.8438 6.61454C25.6771 5.81593 26.6059 5.20829 27.6302 4.79163C28.6545 4.37496 29.7049 4.16663 30.7812 4.16663C31.8576 4.16663 32.908 4.37496 33.9323 4.79163C34.9566 5.20829 35.8681 5.81593 36.6667 6.61454L45.4688 15.4166C46.2674 16.2152 46.875 17.1354 47.2917 18.177C47.7083 19.2187 47.9167 20.2777 47.9167 21.3541C47.9167 22.4305 47.7083 23.4809 47.2917 24.5052C46.875 25.5295 46.2674 26.4409 45.4688 27.2395L28.3854 44.2708C27.8993 44.7569 27.3351 45.1389 26.6927 45.4166C26.0503 45.6944 25.3819 45.8333 24.6875 45.8333Z" fill="#F9A200"/>
</svg>
