<svg width="50" height="50" viewBox="0 0 50 50" fill="none" xmlns="http://www.w3.org/2000/svg">
<path d="M39.2709 45.7813C38.9931 45.7813 38.7327 45.7379 38.4896 45.6511C38.2465 45.5643 38.0209 45.4167 37.8125 45.2084L27.1875 34.5834C26.9792 34.375 26.8316 34.1493 26.7448 33.9063C26.658 33.6632 26.6146 33.4028 26.6146 33.125C26.6146 32.8473 26.658 32.5868 26.7448 32.3438C26.8316 32.1007 26.9792 31.875 27.1875 31.6667L31.6146 27.2396C31.8229 27.0313 32.0486 26.8837 32.2917 26.7969C32.5347 26.7101 32.7952 26.6667 33.0729 26.6667C33.3507 26.6667 33.6111 26.7101 33.8542 26.7969C34.0972 26.8837 34.3229 27.0313 34.5313 27.2396L45.1563 37.8646C45.3646 38.073 45.5122 38.2987 45.599 38.5417C45.6858 38.7848 45.7292 39.0452 45.7292 39.323C45.7292 39.6007 45.6858 39.8612 45.599 40.1042C45.5122 40.3473 45.3646 40.573 45.1563 40.7813L40.7292 45.2084C40.5209 45.4167 40.2952 45.5643 40.0521 45.6511C39.809 45.7379 39.5486 45.7813 39.2709 45.7813ZM39.2709 40.8334L40.7813 39.323L33.125 31.6667L31.6146 33.1771L39.2709 40.8334ZM10.6771 45.8334C10.3993 45.8334 10.1302 45.7813 9.86981 45.6771C9.6094 45.573 9.37502 45.4167 9.16669 45.2084L4.79169 40.8334C4.58335 40.625 4.4271 40.3907 4.32294 40.1302C4.21877 39.8698 4.16669 39.6007 4.16669 39.323C4.16669 39.0452 4.21877 38.7848 4.32294 38.5417C4.4271 38.2987 4.58335 38.073 4.79169 37.8646L15.8334 26.823H20.2604L22.0313 25.0521L13.4375 16.4584H10.4688L4.16669 10.1563L10.0521 4.27087L16.3542 10.573V13.5417L24.9479 22.1355L30.9896 16.0938L28.75 13.8542L31.6667 10.9375H25.7813L24.3229 9.47921L31.7188 2.08337L33.1771 3.54171V9.42712L36.0938 6.51046L43.4896 13.9063C44.0799 14.4966 44.5313 15.165 44.8438 15.9115C45.1563 16.658 45.3125 17.448 45.3125 18.2813C45.3125 19.1146 45.1563 19.9132 44.8438 20.6771C44.5313 21.441 44.0799 22.1181 43.4896 22.7084L39.0625 18.2813L36.1459 21.198L33.9584 19.0105L23.1771 29.7917V34.1667L12.1354 45.2084C11.9271 45.4167 11.7014 45.573 11.4584 45.6771C11.2153 45.7813 10.9549 45.8334 10.6771 45.8334ZM10.6771 40.8334L19.5313 31.9792V30.4688H18.0209L9.16669 39.323L10.6771 40.8334ZM10.6771 40.8334L9.16669 39.323L9.94794 40.0521L10.6771 40.8334Z" fill="#F9A200"/>
</svg>
